<svg xmlns="http://www.w3.org/2000/svg" viewBox="0 0 24 24" fill="none" stroke="currentColor" stroke-width="2" stroke-linecap="round" stroke-linejoin="round">
  <circle cx="12" cy="12" r="3" fill="#4F46E5" stroke="#4F46E5"/>
  <path d="M12 1v6m0 6v6m-5.5-9.5L11 14m7-7.5L13.5 11M1 12h6m6 0h6m-13.5 5.5L11 13m7 7.5L13.5 16" stroke="#4F46E5" stroke-width="2.5"/>
  <path d="M12 2a1.5 1.5 0 0 0-1.5 1.5v1a1.5 1.5 0 0 0 3 0v-1A1.5 1.5 0 0 0 12 2zm0 16a1.5 1.5 0 0 0-1.5 1.5v1a1.5 1.5 0 0 0 3 0v-1A1.5 1.5 0 0 0 12 18zM4.5 10.5a1.5 1.5 0 0 0-1.5 1.5 1.5 1.5 0 0 0 1.5 1.5h1a1.5 1.5 0 0 0 0-3h-1zm14 0a1.5 1.5 0 0 0 0 3h1a1.5 1.5 0 0 0 0-3h-1zM7.05 5.64a1.5 1.5 0 0 0-2.12 2.12l.7.7a1.5 1.5 0 0 0 2.12-2.12l-.7-.7zm11.31 11.31a1.5 1.5 0 0 0-2.12 2.12l.7.7a1.5 1.5 0 0 0 2.12-2.12l-.7-.7zM5.64 16.95a1.5 1.5 0 0 0 2.12 2.12l.7-.7a1.5 1.5 0 0 0-2.12-2.12l-.7.7zM16.95 5.64a1.5 1.5 0 0 0 2.12 2.12l.7-.7a1.5 1.5 0 0 0-2.12-2.12l-.7.7z" fill="#6366F1" stroke="none"/>
</svg>

