<?xml version="1.0" encoding="UTF-8"?>
<svg id="Layer_1" data-name="Layer 1" xmlns="http://www.w3.org/2000/svg" xmlns:xlink="http://www.w3.org/1999/xlink" viewBox="0 0 300 300">
  <defs>
    <style>
      .cls-1 {
        fill: #fff;
      }

      .cls-2 {
        fill: url(#radial-gradient-5);
      }

      .cls-3 {
        fill: url(#radial-gradient);
      }

      .cls-4 {
        fill: url(#radial-gradient-3);
      }

      .cls-5 {
        fill: url(#radial-gradient-8);
      }

      .cls-6 {
        fill: url(#radial-gradient-2);
      }

      .cls-7 {
        fill: url(#radial-gradient-4);
      }

      .cls-8 {
        fill: url(#radial-gradient-6);
      }

      .cls-9 {
        fill: url(#radial-gradient-7);
      }
    </style>
    <radialGradient id="radial-gradient" cx="52.68" cy="18.85" fx="52.68" fy="18.85" r="228.74" gradientUnits="userSpaceOnUse">
      <stop offset="0" stop-color="#fff"/>
      <stop offset=".01" stop-color="#fefcf9"/>
      <stop offset=".14" stop-color="#fcddb7"/>
      <stop offset=".26" stop-color="#fac280"/>
      <stop offset=".37" stop-color="#f8ae55"/>
      <stop offset=".47" stop-color="#f7a036"/>
      <stop offset=".55" stop-color="#f79723"/>
      <stop offset=".61" stop-color="#f7941d"/>
      <stop offset=".71" stop-color="#f68a1e"/>
      <stop offset=".87" stop-color="#f37224"/>
      <stop offset="1" stop-color="#f15a29"/>
    </radialGradient>
    <radialGradient id="radial-gradient-2" cx="52.68" cy="18.85" fx="52.68" fy="18.85" r="228.74" xlink:href="#radial-gradient"/>
    <radialGradient id="radial-gradient-3" cx="52.68" cy="18.85" fx="52.68" fy="18.85" r="228.74" xlink:href="#radial-gradient"/>
    <radialGradient id="radial-gradient-4" cx="52.68" cy="18.85" fx="52.68" fy="18.85" r="228.74" xlink:href="#radial-gradient"/>
    <radialGradient id="radial-gradient-5" cx="52.68" cy="18.85" fx="52.68" fy="18.85" r="228.74" xlink:href="#radial-gradient"/>
    <radialGradient id="radial-gradient-6" cx="52.68" cy="18.85" fx="52.68" fy="18.85" r="228.74" xlink:href="#radial-gradient"/>
    <radialGradient id="radial-gradient-7" cx="52.68" cy="18.85" fx="52.68" fy="18.85" r="228.74" xlink:href="#radial-gradient"/>
    <radialGradient id="radial-gradient-8" cx="52.68" cy="18.85" fx="52.68" fy="18.85" r="228.74" xlink:href="#radial-gradient"/>
  </defs>
  <path class="cls-3" d="M189.99,191.35c-.21.35.12.71-.72.54-30.96-31.27-61.57-63.03-93.81-92.94l-.21.63,98.43,144.91,76.77-183.88C243.11,23.83,199.34,0,150,0h0C67.16,0,0,67.16,0,150h0c0,16.53,2.7,32.43,7.64,47.31.03,0,.06,0,.1,0l21.3-1.6c1.22,10.29,4.86,21.76,11.67,29.72,14.93,17.46,44.52,19.03,65.22,10.55,22.62-9.26,28.5-33.54,7.63-47.32-26.3-17.36-84.34-18.01-95.98-50.87-7.6-21.45,1.09-46.01,22.08-55.6,13.27-6.06,33.45-4.73,48.15-4.91,50.57-.62,101.18.51,151.75.03l-7.48,17.01-136.4-12.76,129.02,30.98-6.83,16.09-121.77-42.41,115.02,58.57-7.05,14.81-.6-.14-108.22-67.31,101.67,83.19c.34.8-3.69,9.39-4.4,10.89-.77,1.61-1.65,3.62-2.53,5.11Z"/>
  <path class="cls-6" d="M205.29,289.48c-1.35.54-2.71,1.05-4.08,1.55,1.37-.5,2.73-1.01,4.08-1.55Z"/>
  <path class="cls-4" d="M200.54,291.26c-1.12.4-2.24.79-3.37,1.16,1.13-.37,2.25-.76,3.37-1.16Z"/>
  <path class="cls-7" d="M191.82,294.08c-1.25.36-2.51.71-3.77,1.04,1.26-.33,2.52-.68,3.77-1.04Z"/>
  <path class="cls-2" d="M196.01,292.8c-1.01.33-2.03.64-3.05.95,1.02-.31,2.04-.62,3.05-.95Z"/>
  <path class="cls-8" d="M147.33,207.21c-.01.18-.02.36-.03.54-3.72,51.97-76.71,66.01-109.47,38.81-5.99-4.97-11.01-10.98-15.31-17.62,0,0-.02.01-.03.02,26.45,42.63,73.65,71.04,127.52,71.04h0c13.04,0,25.68-1.67,37.74-4.79-11.01-24.04-25.24-55.9-40.41-88Z"/>
  <path class="cls-9" d="M279.67,74.56l-74.28,214.88c55.43-22.04,94.62-76.16,94.62-139.44h0c0-27.51-7.41-53.28-20.33-75.44Z"/>
  <path class="cls-5" d="M32.85,121.24c1.15,14.38,15.33,19.85,26.96,23.97,20.88,7.41,49.71,10.61,68.51,22.87-11.12-22.16-22.25-42.83-32.54-59.26-14.45-24.76-65.71-22.28-62.92,12.42Z"/>
  <path class="cls-1" d="M279.31,73.96c-.51-.86-1.03-1.73-1.55-2.58-.2-.33-.41-.66-.62-.99-.5-.8-1.01-1.6-1.53-2.39-.22-.34-.44-.67-.66-1.01-.53-.8-1.07-1.59-1.62-2.38-.21-.3-.42-.61-.63-.91-.63-.9-1.28-1.79-1.93-2.68-.11-.14-.21-.29-.31-.43h0s-76.77,183.88-76.77,183.88L95.25,99.57l.21-.63c32.23,29.91,62.85,61.67,93.81,92.94.85.17.52-.19.72-.54.88-1.5,1.76-3.5,2.53-5.11.71-1.5,4.74-10.08,4.4-10.89l-101.67-83.19,108.22,67.31.6.14,7.05-14.81-115.02-58.57,121.77,42.41,6.83-16.09-129.02-30.98,136.4,12.76,7.48-17.01c-50.57.48-101.18-.64-151.75-.03-14.7.18-34.87-1.15-48.15,4.91-21,9.59-29.69,34.15-22.08,55.6,11.65,32.86,69.68,33.5,95.98,50.87,20.87,13.78,14.99,38.06-7.63,47.32-20.7,8.48-50.29,6.91-65.22-10.55-6.81-7.96-10.45-19.43-11.67-29.72l-21.31,1.6c2.59,7.46,5.54,14.79,9.06,21.69.15.28.3.57.45.85.42.8.85,1.6,1.29,2.4.23.41.46.82.69,1.23.39.69.79,1.38,1.19,2.07.2.35.41.7.62,1.05,4.62,7.58,10.11,14.41,16.8,19.97,32.77,27.19,105.76,13.15,109.47-38.81.01-.18.02-.36.03-.54,15.17,32.1,29.4,63.96,40.41,88,0,0,0,0,0,0,.1-.03.21-.06.31-.09,1.26-.33,2.52-.68,3.77-1.04.38-.11.76-.23,1.14-.34,1.02-.3,2.04-.62,3.05-.95.39-.13.78-.25,1.16-.38,1.13-.37,2.25-.76,3.37-1.16.22-.08.45-.15.67-.24,1.37-.5,2.73-1.01,4.08-1.55.03-.01.06-.02.09-.04h0s74.28-214.88,74.28-214.88h0c-.12-.21-.24-.4-.36-.6ZM59.8,145.21c-11.63-4.13-25.81-9.6-26.96-23.97-2.78-34.69,48.47-37.18,62.92-12.42,10.3,16.42,21.42,37.1,32.54,59.26-18.8-12.26-47.63-15.46-68.51-22.87Z"/>
</svg>